<svg id="line_color" height="512" viewBox="0 0 74 74" width="512" xmlns="http://www.w3.org/2000/svg" data-name="line color"><path d="m65.779 61.837h-.037a.5.5 0 0 1 -.462-.535c.015-.206.025-.408.036-.608l.021-.385a.507.507 0 0 1 .529-.469.5.5 0 0 1 .469.529l-.021.376c-.011.208-.021.417-.037.63a.5.5 0 0 1 -.498.462z" fill="#323c6b"/><path d="m63.916 73.358a.5.5 0 0 1 -.218-.95 5.354 5.354 0 0 0 2.895-3.662 5.251 5.251 0 0 0 -1.123-4.668.5.5 0 1 1 .754-.656 6.241 6.241 0 0 1 1.344 5.546 6.351 6.351 0 0 1 -3.436 4.34.5.5 0 0 1 -.216.05z" fill="#323c6b"/><path d="m14.757 30.348c-2.684 5.82-6.076 17.295-2.961 34.641a.127.127 0 0 1 -.031.02 2.863 2.863 0 0 0 1.27 5.43 280.347 280.347 0 0 0 48.319 0 2.863 2.863 0 0 0 1.27-5.43.127.127 0 0 1 -.031-.02c3.115-17.346-.277-28.821-2.951-34.641z" fill="#e2b68d"/><g opacity=".4"><path d="m62.625 65.01a.127.127 0 0 1 -.031-.021c3.115-17.346-.277-28.821-2.951-34.641h-3.133c2.162 6.466 3.881 16.629 1.369 30.615a.127.127 0 0 0 .031.021 2.863 2.863 0 0 1 -1.271 5.43 280.308 280.308 0 0 1 -46.307.152 2.884 2.884 0 0 0 2.7 3.874 280.34 280.34 0 0 0 48.319 0 2.863 2.863 0 0 0 1.274-5.43z" fill="#b98c6c"/></g><path d="m37.029 43.382a3.559 3.559 0 0 0 1.007 5.674 3.559 3.559 0 0 0 -1.007-5.674z" fill="#fcd462"/><path d="m38.036 49.556a.5.5 0 0 1 -.243-.062 4.057 4.057 0 0 1 -1.142-6.439.5.5 0 0 1 .62-.11 4.057 4.057 0 0 1 1.143 6.439.5.5 0 0 1 -.378.172zm-.89-5.513a3 3 0 0 0 .772 4.351 3 3 0 0 0 -.772-4.351z" fill="#323c6b"/><path d="m43.784 48.467a3.559 3.559 0 0 1 -5.732.6 3.559 3.559 0 0 1 5.732-.6z" fill="#fcd462"/><path d="m40.717 50.749a4.265 4.265 0 0 1 -3.017-1.326.5.5 0 0 1 -.066-.627 4.057 4.057 0 0 1 6.5-.683.5.5 0 0 1 .066.627 4.2 4.2 0 0 1 -3.079 1.987 3.8 3.8 0 0 1 -.404.022zm-2-1.75a3 3 0 0 0 4.4-.461 3 3 0 0 0 -4.4.461z" fill="#323c6b"/><path d="m34.5 45.542a4.162 4.162 0 0 0 1.178 6.637 4.162 4.162 0 0 0 -1.178-6.637z" fill="#fcd462"/><path d="m35.682 52.679a.5.5 0 0 1 -.243-.062 4.66 4.66 0 0 1 -1.312-7.4.5.5 0 0 1 .621-.11 4.661 4.661 0 0 1 1.313 7.4.5.5 0 0 1 -.379.172zm-1.06-6.479a3.605 3.605 0 0 0 .944 5.323 3.605 3.605 0 0 0 -.944-5.323z" fill="#323c6b"/><path d="m42.406 51.49a4.162 4.162 0 0 1 -6.7.7 4.162 4.162 0 0 1 6.7-.7z" fill="#fcd462"/><path d="m38.819 54.075a4.905 4.905 0 0 1 -3.469-1.526.5.5 0 0 1 -.066-.627 4.66 4.66 0 0 1 7.475-.785.5.5 0 0 1 .066.627 4.824 4.824 0 0 1 -3.539 2.287 4.42 4.42 0 0 1 -.467.024zm-2.453-1.95a3.606 3.606 0 0 0 5.377-.564 3.606 3.606 0 0 0 -5.377.564z" fill="#323c6b"/><path d="m31.851 48.5a4.451 4.451 0 0 0 1.259 7.1 4.451 4.451 0 0 0 -1.259-7.1z" fill="#fcd462"/><path d="m33.11 56.095a.5.5 0 0 1 -.243-.062 4.95 4.95 0 0 1 -1.395-7.862.5.5 0 0 1 .62-.11 4.95 4.95 0 0 1 1.4 7.862.5.5 0 0 1 -.382.172zm-1.143-6.943a3.9 3.9 0 0 0 1.027 5.788 3.895 3.895 0 0 0 -1.027-5.788z" fill="#323c6b"/><path d="m40.3 54.858a4.451 4.451 0 0 1 -7.169.753 4.451 4.451 0 0 1 7.169-.753z" fill="#fcd462"/><path d="m36.464 57.587a5.211 5.211 0 0 1 -3.686-1.622.5.5 0 0 1 -.066-.627 4.949 4.949 0 0 1 7.941-.834.5.5 0 0 1 .066.627 5.128 5.128 0 0 1 -3.759 2.43 4.845 4.845 0 0 1 -.496.026zm-2.671-2.045a3.894 3.894 0 0 0 5.846-.614 3.894 3.894 0 0 0 -5.846.614z" fill="#323c6b"/><path d="m43.146 42.286a3.559 3.559 0 0 0 -3.466 4.6 3.559 3.559 0 0 0 3.466-4.6z" fill="#fcd462"/><g fill="#323c6b"><path d="m39.68 47.39a.5.5 0 0 1 -.485-.379 4.057 4.057 0 0 1 3.934-5.224.5.5 0 0 1 .5.379 4.057 4.057 0 0 1 -3.929 5.223zm3.062-4.567a3 3 0 0 0 -2.658 3.531 3 3 0 0 0 2.658-3.531z"/><path d="m30.937 59a.5.5 0 0 1 -.4-.8l8.743-11.611a.5.5 0 1 1 .8.6l-8.743 11.611a.5.5 0 0 1 -.4.2z"/><path d="m37.2 71.978c-8.084 0-16.173-.346-24.206-1.04a3.365 3.365 0 0 1 -1.748-6.213c-3.085-17.609.585-29.217 3.062-34.586a.5.5 0 0 1 .454-.291h44.881a.5.5 0 0 1 .454.291c2.471 5.377 6.134 16.995 3.052 34.585a3.278 3.278 0 0 1 1.493 3.576 3.325 3.325 0 0 1 -3.288 2.637c-8.005.695-16.078 1.041-24.154 1.041zm-22.12-41.13c-2.441 5.422-5.886 16.828-2.792 34.052a.5.5 0 0 1 -.139.442.756.756 0 0 1 -.161.114 2.272 2.272 0 0 0 -1.266 2.624 2.316 2.316 0 0 0 2.313 1.859 281.619 281.619 0 0 0 48.276 0 2.334 2.334 0 0 0 2.355-1.861 2.269 2.269 0 0 0 -1.258-2.621.743.743 0 0 1 -.168-.118.5.5 0 0 1 -.14-.439c3.089-17.205-.347-28.623-2.781-34.053z"/></g><path d="m15.791 59.461a.7.7 0 0 1 -.7-.63 69.309 69.309 0 0 1 -.256-11.08.708.708 0 0 1 .741-.657.7.7 0 0 1 .657.741 67.985 67.985 0 0 0 .251 10.855.7.7 0 0 1 -.7.771z" fill="#fff"/><path d="m15.763 45.614a.7.7 0 0 1 -.694-.795q.118-.864.257-1.686a.708.708 0 0 1 .806-.575.7.7 0 0 1 .575.806q-.135.8-.251 1.644a.7.7 0 0 1 -.693.606z" fill="#fff"/><path d="m58.965 19.453c0 2.69-9.75 4.87-21.77 4.87s-21.77-2.18-21.77-4.87 9.75-4.47 21.77-4.47 21.77 1.78 21.77 4.47z" fill="#c49474"/><path d="m37.195 24.823c-10.8 0-22.27-1.882-22.27-5.37 0-3.434 11.185-4.97 22.27-4.97s22.27 1.537 22.27 4.97c0 3.488-11.474 5.37-22.27 5.37zm0-9.34c-13.138 0-21.27 2.061-21.27 3.97 0 2.067 8.735 4.37 21.27 4.37s21.27-2.3 21.27-4.37c0-1.909-8.132-3.97-21.27-3.97z" fill="#323c6b"/><path d="m23.921 8.223a.5.5 0 0 1 -.3-.9 14.53 14.53 0 0 1 1.334-.912.5.5 0 0 1 .514.857 13.672 13.672 0 0 0 -1.243.851.5.5 0 0 1 -.305.104z" fill="#323c6b"/><path d="m27.831 6a.5.5 0 0 1 -.207-.956l.637-.287a15.787 15.787 0 0 0 3.4-1.831c.146-.118.287-.243.428-.367a9.959 9.959 0 0 1 2.736-1.876.5.5 0 0 1 .395.919 8.967 8.967 0 0 0 -2.427 1.673c-.195.172-.346.306-.5.433a16.435 16.435 0 0 1 -3.62 1.968l-.632.284a.5.5 0 0 1 -.21.04z" fill="#323c6b"/><path d="m56.968 23.392c-4.158 1.77-11.682 2.466-19.764 2.466-8.189 0-15.949-.782-20.075-2.584.789-1.493 2.93-3.024 3.943-4.463a18.6 18.6 0 0 0 1.909-4.311 10.491 10.491 0 0 1 1.461-2.857c2.292-2.983 6.632-3.463 9.558-5.843a9.912 9.912 0 0 1 2.292-1.717 5.811 5.811 0 0 1 1.919-.394c2.314-.192 5.065.032 6.3 1.994.725 1.152.714 2.612 1.194 3.892.682 1.791 2.271 3.039 3.433 4.553.075.085.139.171.2.256 1.375 1.909 2.079 4.372 3.977 5.747a15.263 15.263 0 0 1 3.653 3.261z" fill="#eeefee"/><path d="m35.513 5.559c2.314-.192 5.065.032 6.3 1.994.725 1.152.714 2.612 1.194 3.892.682 1.791 2.271 3.039 3.433 4.553.075.085.139.171.2.256 1.375 1.909 2.079 4.372 3.977 5.747a23.538 23.538 0 0 1 3 2.438 20.769 20.769 0 0 0 3.349-1.047 15.262 15.262 0 0 0 -3.653-3.259c-1.9-1.375-2.6-3.838-3.977-5.747-.064-.085-.128-.171-.2-.256-1.162-1.514-2.751-2.761-3.433-4.553-.48-1.279-.469-2.74-1.194-3.892-1.237-1.962-3.988-2.186-6.3-1.994a5.812 5.812 0 0 0 -1.919.394 9.911 9.911 0 0 0 -2.29 1.715l-.015.011a7.067 7.067 0 0 1 1.528-.252z" fill="#e1e6e9"/><path d="m25.06 10.954c2.075-1.064 4.43-1.809 6.241-3.283.215-.177.425-.365.636-.552-2.362 1.235-5.048 2.014-6.877 3.835z" fill="#e1e6e9"/><path d="m37.2 26.358c-5.327 0-15.043-.341-20.275-2.626a.5.5 0 0 1 -.242-.691 12.123 12.123 0 0 1 2.255-2.641 15.068 15.068 0 0 0 1.726-1.875 13.778 13.778 0 0 0 1.543-3.354c.1-.281.2-.562.306-.841a10.92 10.92 0 0 1 1.534-2.988c1.393-1.815 3.488-2.748 5.514-3.651a18.207 18.207 0 0 0 4.119-2.276c.177-.147.354-.3.53-.461a6.982 6.982 0 0 1 1.883-1.329 6.249 6.249 0 0 1 2.073-.432c3.383-.276 5.657.469 6.764 2.226a7.327 7.327 0 0 1 .844 2.475 10.427 10.427 0 0 0 .4 1.508 9.839 9.839 0 0 0 2.12 2.98c.42.461.854.938 1.242 1.443.061.068.13.16.2.251a20.032 20.032 0 0 1 1.328 2.224 9.631 9.631 0 0 0 2.544 3.425l.269.2a14.213 14.213 0 0 1 3.523 3.208.5.5 0 0 1 -.232.719c-4.868 2.071-13.544 2.506-19.968 2.506zm-19.333-3.322c3.838 1.479 10.82 2.322 19.337 2.322 8.486 0 15.176-.776 18.979-2.192a18.179 18.179 0 0 0 -2.895-2.434l-.269-.2a10.508 10.508 0 0 1 -2.834-3.757 19.278 19.278 0 0 0 -1.253-2.1c-.055-.073-.109-.146-.173-.219-.383-.5-.8-.958-1.208-1.4a10.732 10.732 0 0 1 -2.316-3.3 11.308 11.308 0 0 1 -.435-1.656 6.479 6.479 0 0 0 -.712-2.147c-.892-1.416-2.855-2.008-5.836-1.762a5.433 5.433 0 0 0 -1.757.353 6.134 6.134 0 0 0 -1.62 1.156c-.186.165-.372.33-.561.487a18.947 18.947 0 0 1 -4.346 2.413c-2 .891-3.889 1.733-5.129 3.348a10.042 10.042 0 0 0 -1.388 2.726c-.1.277-.2.554-.3.83a14.736 14.736 0 0 1 -1.669 3.596 15.945 15.945 0 0 1 -1.843 2.015 16.077 16.077 0 0 0 -1.772 1.921z" fill="#323c6b"/><path d="m57.045 31.893c-4.68 1.38-11.93 2.21-19.85 2.21s-15.17-.83-19.85-2.21a5.176 5.176 0 0 1 -3.79-6.47l1.87-5.97c0 2.69 9.75 4.87 21.77 4.87s21.77-2.18 21.77-4.87l1.87 5.97a5.176 5.176 0 0 1 -3.79 6.47z" fill="#e2b68d"/><path d="m37.195 34.6c-7.9 0-15.184-.813-19.992-2.23a6.155 6.155 0 0 1 -3.771-3.006 5.245 5.245 0 0 1 -.352-4.1l1.868-5.964a.5.5 0 0 1 .977.149c0 2.067 8.735 4.37 21.27 4.37s21.27-2.3 21.27-4.37a.5.5 0 0 1 .424-.494.5.5 0 0 1 .553.345l1.87 5.97a5.241 5.241 0 0 1 -.354 4.093 6.152 6.152 0 0 1 -3.771 3.006c-4.808 1.421-12.095 2.231-19.992 2.231zm-21.664-13.813-1.5 4.786a4.256 4.256 0 0 0 .285 3.33 5.162 5.162 0 0 0 3.17 2.512c4.719 1.392 11.9 2.189 19.708 2.189s14.988-.8 19.708-2.189a5.163 5.163 0 0 0 3.17-2.515 4.256 4.256 0 0 0 .288-3.324l-1.5-4.792c-2.5 2.631-12.336 4.036-21.664 4.036s-19.162-1.402-21.665-4.033z" fill="#323c6b"/></svg>